<?xml version="1.0" encoding="UTF-8"?>
<svg id="Layer_2" data-name="Layer 2" xmlns="http://www.w3.org/2000/svg" viewBox="0 0 463.5 440">
  <defs>
    <style>
      .cls-1 {
        font-family: Arial-Black, 'Arial Black';
        font-size: 96px;
        font-weight: 800;
      }

      .cls-2 {
        stroke-width: 12.84px;
      }

      .cls-2, .cls-3 {
        fill: none;
        stroke: #000;
        stroke-miterlimit: 10;
      }

      .cls-3 {
        stroke-linecap: round;
        stroke-width: 13px;
      }
    </style>
  </defs>
  <g id="Layer_1-2" data-name="Layer 1">
    <g>
      <text class="cls-1" transform="translate(169.63 253.08)"><tspan x="0" y="0">&lt;/&gt;</tspan></text>
      <g>
        <path d="M247.5,129.77c49.2,0,89.23,40.03,89.23,89.23s-40.03,89.23-89.23,89.23-89.23-40.03-89.23-89.23,40.03-89.23,89.23-89.23M247.5,118.5c-55.5,0-100.5,45-100.5,100.5s45,100.5,100.5,100.5,100.5-45,100.5-100.5-45-100.5-100.5-100.5h0Z"/>
        <line class="cls-3" x1="40.5" y1="176" x2="6.5" y2="176"/>
        <line class="cls-3" x1="40.5" y1="253" x2="6.5" y2="253"/>
        <circle class="cls-2" cx="245.5" cy="219" r="175"/>
        <line class="cls-3" x1="337.52" y1="319.02" x2="313.48" y2="294.98"/>
        <line class="cls-3" x1="170.7" y1="151.8" x2="146.65" y2="127.76"/>
        <line class="cls-3" x1="316.68" y1="151.69" x2="340.73" y2="127.65"/>
        <line class="cls-3" x1="153.68" y1="314.69" x2="177.73" y2="290.65"/>
        <line class="cls-3" x1="244.5" y1="354" x2="244.5" y2="320"/>
        <line class="cls-3" x1="244.5" y1="121" x2="244.5" y2="87"/>
        <line class="cls-3" x1="378.65" y1="221.03" x2="344.65" y2="221.03"/>
        <line class="cls-3" x1="151.65" y1="221.03" x2="117.65" y2="221.03"/>
        <rect class="cls-3" x="30" y="6.5" width="427" height="427" rx="38.16" ry="38.16"/>
        <circle class="cls-2" cx="187" cy="360.5" r="1.5"/>
        <circle class="cls-2" cx="305" cy="75.5" r="1.5"/>
        <circle class="cls-2" cx="301" cy="361.5" r="1.5"/>
        <circle class="cls-2" cx="387" cy="282.5" r="1.5"/>
        <circle class="cls-2" cx="389" cy="162.5" r="1.5"/>
        <circle class="cls-2" cx="103" cy="280.5" r="1.5"/>
        <circle class="cls-2" cx="102" cy="163.5" r="1.5"/>
        <circle class="cls-2" cx="181" cy="76.5" r="1.5"/>
      </g>
    </g>
  </g>
</svg>